<?xml version="1.0" standalone="no"?><!DOCTYPE svg PUBLIC "-//W3C//DTD SVG 1.1//EN" "http://www.w3.org/Graphics/SVG/1.1/DTD/svg11.dtd"><svg t="1647844203928" class="icon" viewBox="0 0 1024 1024" version="1.1" xmlns="http://www.w3.org/2000/svg" p-id="7837" xmlns:xlink="http://www.w3.org/1999/xlink" width="200" height="200"><defs><style type="text/css">@font-face { font-family: "feedback-iconfont"; src: url("//at.alicdn.com/t/font_1031158_u69w8yhxdu.woff2?t=1630033759944") format("woff2"), url("//at.alicdn.com/t/font_1031158_u69w8yhxdu.woff?t=1630033759944") format("woff"), url("//at.alicdn.com/t/font_1031158_u69w8yhxdu.ttf?t=1630033759944") format("truetype"); }
</style></defs><path d="M0 0m151.698286 0l720.603428 0q151.698286 0 151.698286 151.698286l0 720.603428q0 151.698286-151.698286 151.698286l-720.603428 0q-151.698286 0-151.698286-151.698286l0-720.603428q0-151.698286 151.698286-151.698286Z" fill="#FF943E" p-id="7838"></path><path d="M429.933714 263.314286v159.890285l79.945143-39.936 79.945143 39.936V263.314286h189.366857a44.982857 44.982857 0 0 1 44.982857 44.982857v409.161143a44.982857 44.982857 0 0 1-44.982857 44.909714H235.154286A44.909714 44.909714 0 0 1 190.171429 717.458286V308.297143A44.982857 44.982857 0 0 1 235.154286 263.314286z m211.602286 235.154285a11.483429 11.483429 0 0 0-16.091429-2.706285l-71.094857 50.761143a11.264 11.264 0 0 0-2.633143 2.633142 11.556571 11.556571 0 0 0 2.633143 16.091429l71.094857 50.761143A11.556571 11.556571 0 0 0 643.657143 606.646857V577.828571h56.393143a32.914286 32.914286 0 0 1-1.536 65.828572H554.569143a21.942857 21.942857 0 0 0 1.316571 43.885714h142.628572a76.8 76.8 0 0 0 0-153.6H643.657143v-28.818286a11.264 11.264 0 0 0-2.121143-6.656zM325.485714 629.028571h-51.2a25.6 25.6 0 0 0 0 51.2h51.2a25.6 25.6 0 0 0 0-51.2z m51.2-102.4h-102.4a25.6 25.6 0 0 0 0 51.2h102.4a25.6 25.6 0 0 0 0-51.2z" fill="#FFFFFF" p-id="7839"></path></svg>