<?xml version="1.0" standalone="no"?><!DOCTYPE svg PUBLIC "-//W3C//DTD SVG 1.1//EN" "http://www.w3.org/Graphics/SVG/1.1/DTD/svg11.dtd"><svg t="1634785630682" class="icon" viewBox="0 0 1024 1024" version="1.1" xmlns="http://www.w3.org/2000/svg" p-id="17508" xmlns:xlink="http://www.w3.org/1999/xlink" width="200" height="200"><defs><style type="text/css"></style></defs><path d="M787.3536 122.88H236.6464A113.8688 113.8688 0 0 0 122.88 236.6464v540.4672A113.8688 113.8688 0 0 0 236.6464 890.88h550.7072A113.8688 113.8688 0 0 0 901.12 777.1136V236.6464A113.8688 113.8688 0 0 0 787.3536 122.88z m-550.7072 40.96h550.7072A72.9088 72.9088 0 0 1 860.16 236.6464v63.5904H163.84v-63.5904A72.9088 72.9088 0 0 1 236.6464 163.84z m138.0352 363.52v136.3968H163.84V527.36zM163.84 486.4V341.1968h210.8416V486.4z m251.8016 40.96H860.16v136.3968H415.6416z m0-40.96V341.1968H860.16V486.4zM163.84 777.1136v-72.3968h210.8416V849.92H236.6464A72.9088 72.9088 0 0 1 163.84 777.1136zM787.3536 849.92h-371.712V704.7168H860.16v72.3968A72.9088 72.9088 0 0 1 787.3536 849.92z" p-id="17509"></path></svg>