<?xml version="1.0" standalone="no"?><!DOCTYPE svg PUBLIC "-//W3C//DTD SVG 1.1//EN" "http://www.w3.org/Graphics/SVG/1.1/DTD/svg11.dtd"><svg t="1647845752404" class="icon" viewBox="0 0 1024 1024" version="1.1" xmlns="http://www.w3.org/2000/svg" p-id="9349" xmlns:xlink="http://www.w3.org/1999/xlink" width="200" height="200"><defs><style type="text/css">@font-face { font-family: "feedback-iconfont"; src: url("//at.alicdn.com/t/font_1031158_u69w8yhxdu.woff2?t=1630033759944") format("woff2"), url("//at.alicdn.com/t/font_1031158_u69w8yhxdu.woff?t=1630033759944") format("woff"), url("//at.alicdn.com/t/font_1031158_u69w8yhxdu.ttf?t=1630033759944") format("truetype"); }
</style></defs><path d="M0 0m298.666667 0l426.666666 0q298.666667 0 298.666667 298.666667l0 426.666666q0 298.666667-298.666667 298.666667l-426.666666 0q-298.666667 0-298.666667-298.666667l0-426.666666q0-298.666667 298.666667-298.666667Z" fill="#FF9F00" p-id="9350"></path><path d="M768 329.984v76.458667a18.346667 18.346667 0 0 1-5.632 13.44 18.261333 18.261333 0 0 1-13.333333 5.696h-492.373334a18.005333 18.005333 0 0 1-13.312-5.674667 18.496 18.496 0 0 1-5.632-13.44v-76.48a18.346667 18.346667 0 0 1 5.632-13.44 18.261333 18.261333 0 0 1 13.312-5.696h492.373334c5.12 0 9.6 1.877333 13.333333 5.696a18.346667 18.346667 0 0 1 5.632 13.44zM768 482.922667v76.458666a18.346667 18.346667 0 0 1-5.632 13.44 18.261333 18.261333 0 0 1-13.333333 5.674667h-492.373334a18.005333 18.005333 0 0 1-13.312-5.674667 18.496 18.496 0 0 1-5.632-13.44v-76.458666a18.346667 18.346667 0 0 1 5.632-13.44 18.154667 18.154667 0 0 1 13.312-5.696h492.373334c5.12 0 9.6 1.856 13.333333 5.674666a18.346667 18.346667 0 0 1 5.632 13.44zM768 635.84v76.458667a18.346667 18.346667 0 0 1-5.632 13.44 18.261333 18.261333 0 0 1-13.333333 5.696h-492.373334a18.005333 18.005333 0 0 1-13.312-5.696 18.496 18.496 0 0 1-5.632-13.44v-76.458667a18.346667 18.346667 0 0 1 5.632-13.44 18.154667 18.154667 0 0 1 13.312-5.696h492.373334c5.12 0 9.6 1.877333 13.333333 5.674667a18.346667 18.346667 0 0 1 5.632 13.44z" fill="#FFFFFF" p-id="9351"></path><path d="M427.136 540.16h303.018667v-38.250667H427.136v38.272zM540.8 693.162667h189.354667v-38.272H540.8zM616.554667 387.328h113.664v-38.272h-113.664z" fill="#FF9F00" p-id="9352"></path></svg>